<mxfile host="app.diagrams.net" modified="2023-11-07T13:10:42.684Z" agent="Mozilla/5.0 (Windows NT 10.0; Win64; x64) AppleWebKit/537.36 (KHTML, like Gecko) Chrome/119.0.0.0 Safari/537.36" etag="FXOK-4fP5iGsD8ehNdzx" version="22.0.8" type="device">
  <diagram name="1 oldal" id="DW9HzZtJwnr9ZAtg071N">
    <mxGraphModel dx="1050" dy="566" grid="1" gridSize="10" guides="1" tooltips="1" connect="1" arrows="1" fold="1" page="1" pageScale="1" pageWidth="827" pageHeight="1169" math="0" shadow="0">
      <root>
        <mxCell id="0" />
        <mxCell id="1" parent="0" />
        <mxCell id="xCUDBsy7Le8TKo7_2RJn-1" value="Honlap" style="whiteSpace=wrap;html=1;aspect=fixed;labelPosition=center;verticalLabelPosition=top;align=center;verticalAlign=bottom;fillColor=#f5f5f5;fontColor=#333333;strokeColor=#666666;shadow=1;fillStyle=auto;gradientColor=default;" vertex="1" parent="1">
          <mxGeometry x="210" y="40" width="460" height="460" as="geometry" />
        </mxCell>
        <mxCell id="xCUDBsy7Le8TKo7_2RJn-2" value="Ügyfél" style="shape=umlActor;verticalLabelPosition=bottom;verticalAlign=top;html=1;outlineConnect=0;" vertex="1" parent="1">
          <mxGeometry x="130" y="110" width="30" height="60" as="geometry" />
        </mxCell>
        <mxCell id="xCUDBsy7Le8TKo7_2RJn-3" value="Rendszergazda" style="shape=umlActor;verticalLabelPosition=bottom;verticalAlign=top;html=1;outlineConnect=0;" vertex="1" parent="1">
          <mxGeometry x="130" y="310" width="30" height="60" as="geometry" />
        </mxCell>
        <mxCell id="xCUDBsy7Le8TKo7_2RJn-4" value="Utazásszervező" style="shape=umlActor;verticalLabelPosition=bottom;verticalAlign=top;html=1;outlineConnect=0;" vertex="1" parent="1">
          <mxGeometry x="730" y="110" width="30" height="60" as="geometry" />
        </mxCell>
        <mxCell id="xCUDBsy7Le8TKo7_2RJn-5" value="Titkárnő" style="shape=umlActor;verticalLabelPosition=bottom;verticalAlign=top;html=1;outlineConnect=0;" vertex="1" parent="1">
          <mxGeometry x="730" y="310" width="30" height="60" as="geometry" />
        </mxCell>
        <mxCell id="xCUDBsy7Le8TKo7_2RJn-26" value="&lt;b&gt;Utazás foglalás&lt;/b&gt;" style="ellipse;whiteSpace=wrap;html=1;" vertex="1" parent="1">
          <mxGeometry x="250" y="60" width="110" height="60" as="geometry" />
        </mxCell>
        <mxCell id="xCUDBsy7Le8TKo7_2RJn-27" value="Ügyfélszolgálat&amp;nbsp;" style="ellipse;whiteSpace=wrap;html=1;fontStyle=1" vertex="1" parent="1">
          <mxGeometry x="400" y="150" width="110" height="60" as="geometry" />
        </mxCell>
        <mxCell id="xCUDBsy7Le8TKo7_2RJn-28" value="Nyilvántartás" style="ellipse;whiteSpace=wrap;html=1;fontStyle=1" vertex="1" parent="1">
          <mxGeometry x="530" y="400" width="110" height="60" as="geometry" />
        </mxCell>
        <mxCell id="xCUDBsy7Le8TKo7_2RJn-29" value="Karbantartás" style="ellipse;whiteSpace=wrap;html=1;fontStyle=1" vertex="1" parent="1">
          <mxGeometry x="220" y="400" width="110" height="60" as="geometry" />
        </mxCell>
        <mxCell id="xCUDBsy7Le8TKo7_2RJn-30" value="Fizetés" style="ellipse;whiteSpace=wrap;html=1;fontStyle=1" vertex="1" parent="1">
          <mxGeometry x="300" y="210" width="110" height="60" as="geometry" />
        </mxCell>
        <mxCell id="xCUDBsy7Le8TKo7_2RJn-31" value="&lt;b&gt;Regisztráció/&lt;br&gt;Azonosítás&lt;/b&gt;" style="ellipse;whiteSpace=wrap;html=1;" vertex="1" parent="1">
          <mxGeometry x="350" y="330" width="110" height="60" as="geometry" />
        </mxCell>
        <mxCell id="xCUDBsy7Le8TKo7_2RJn-32" value="&lt;b&gt;Utazások&lt;br&gt;összeállítása&lt;br&gt;&lt;/b&gt;" style="ellipse;whiteSpace=wrap;html=1;" vertex="1" parent="1">
          <mxGeometry x="520" y="70" width="110" height="60" as="geometry" />
        </mxCell>
        <mxCell id="xCUDBsy7Le8TKo7_2RJn-34" value="" style="endArrow=none;html=1;rounded=0;exitX=0.025;exitY=0.373;exitDx=0;exitDy=0;exitPerimeter=0;entryX=0;entryY=0.5;entryDx=0;entryDy=0;" edge="1" parent="1" source="xCUDBsy7Le8TKo7_2RJn-30" target="xCUDBsy7Le8TKo7_2RJn-26">
          <mxGeometry width="50" height="50" relative="1" as="geometry">
            <mxPoint x="390" y="310" as="sourcePoint" />
            <mxPoint x="440" y="260" as="targetPoint" />
            <Array as="points">
              <mxPoint x="150" y="130" />
            </Array>
          </mxGeometry>
        </mxCell>
        <mxCell id="xCUDBsy7Le8TKo7_2RJn-36" value="" style="endArrow=none;html=1;rounded=0;entryX=0;entryY=0.5;entryDx=0;entryDy=0;" edge="1" parent="1" target="xCUDBsy7Le8TKo7_2RJn-27">
          <mxGeometry relative="1" as="geometry">
            <mxPoint x="150" y="130" as="sourcePoint" />
            <mxPoint x="310" y="130" as="targetPoint" />
            <Array as="points" />
          </mxGeometry>
        </mxCell>
        <mxCell id="xCUDBsy7Le8TKo7_2RJn-38" value="" style="endArrow=none;html=1;rounded=0;entryX=0;entryY=0.5;entryDx=0;entryDy=0;" edge="1" parent="1" target="xCUDBsy7Le8TKo7_2RJn-31">
          <mxGeometry relative="1" as="geometry">
            <mxPoint x="150" y="130" as="sourcePoint" />
            <mxPoint x="320" y="130" as="targetPoint" />
          </mxGeometry>
        </mxCell>
        <mxCell id="xCUDBsy7Le8TKo7_2RJn-40" value="" style="endArrow=none;html=1;rounded=0;" edge="1" parent="1" target="xCUDBsy7Le8TKo7_2RJn-29">
          <mxGeometry relative="1" as="geometry">
            <mxPoint x="150" y="340" as="sourcePoint" />
            <mxPoint x="310" y="350" as="targetPoint" />
          </mxGeometry>
        </mxCell>
        <mxCell id="xCUDBsy7Le8TKo7_2RJn-41" value="" style="endArrow=none;html=1;rounded=0;exitX=0.935;exitY=0.26;exitDx=0;exitDy=0;exitPerimeter=0;" edge="1" parent="1" source="xCUDBsy7Le8TKo7_2RJn-28">
          <mxGeometry relative="1" as="geometry">
            <mxPoint x="590" y="339" as="sourcePoint" />
            <mxPoint x="740" y="340" as="targetPoint" />
          </mxGeometry>
        </mxCell>
        <mxCell id="xCUDBsy7Le8TKo7_2RJn-42" value="" style="endArrow=none;html=1;rounded=0;exitX=1;exitY=1;exitDx=0;exitDy=0;" edge="1" parent="1" source="xCUDBsy7Le8TKo7_2RJn-32">
          <mxGeometry relative="1" as="geometry">
            <mxPoint x="570" y="139.5" as="sourcePoint" />
            <mxPoint x="740" y="140" as="targetPoint" />
          </mxGeometry>
        </mxCell>
        <mxCell id="xCUDBsy7Le8TKo7_2RJn-43" value="" style="endArrow=none;html=1;rounded=0;" edge="1" parent="1" source="xCUDBsy7Le8TKo7_2RJn-27">
          <mxGeometry relative="1" as="geometry">
            <mxPoint x="580" y="160" as="sourcePoint" />
            <mxPoint x="740" y="140" as="targetPoint" />
          </mxGeometry>
        </mxCell>
        <mxCell id="xCUDBsy7Le8TKo7_2RJn-44" value="" style="endArrow=none;html=1;rounded=0;exitX=1;exitY=0.5;exitDx=0;exitDy=0;" edge="1" parent="1" source="xCUDBsy7Le8TKo7_2RJn-31">
          <mxGeometry relative="1" as="geometry">
            <mxPoint x="580" y="150" as="sourcePoint" />
            <mxPoint x="740" y="140" as="targetPoint" />
          </mxGeometry>
        </mxCell>
        <mxCell id="xCUDBsy7Le8TKo7_2RJn-45" value="" style="endArrow=none;html=1;rounded=0;exitX=0.971;exitY=0.707;exitDx=0;exitDy=0;exitPerimeter=0;" edge="1" parent="1" source="xCUDBsy7Le8TKo7_2RJn-30">
          <mxGeometry relative="1" as="geometry">
            <mxPoint x="580" y="339" as="sourcePoint" />
            <mxPoint x="740" y="339" as="targetPoint" />
          </mxGeometry>
        </mxCell>
        <mxCell id="xCUDBsy7Le8TKo7_2RJn-46" value="" style="endArrow=none;html=1;rounded=0;" edge="1" parent="1">
          <mxGeometry relative="1" as="geometry">
            <mxPoint x="460" y="360" as="sourcePoint" />
            <mxPoint x="740" y="339" as="targetPoint" />
            <Array as="points" />
          </mxGeometry>
        </mxCell>
        <mxCell id="xCUDBsy7Le8TKo7_2RJn-47" value="" style="endArrow=none;html=1;rounded=0;dashed=1;dashPattern=1 2;exitX=1;exitY=0.5;exitDx=0;exitDy=0;" edge="1" parent="1" source="xCUDBsy7Le8TKo7_2RJn-26" target="xCUDBsy7Le8TKo7_2RJn-32">
          <mxGeometry relative="1" as="geometry">
            <mxPoint x="360" y="109" as="sourcePoint" />
            <mxPoint x="520" y="109" as="targetPoint" />
          </mxGeometry>
        </mxCell>
      </root>
    </mxGraphModel>
  </diagram>
</mxfile>
